<?xml version="1.0" standalone="no"?>
<!DOCTYPE svg PUBLIC "-//W3C//DTD SVG 20010904//EN"
 "http://www.w3.org/TR/2001/REC-SVG-20010904/DTD/svg10.dtd">
<svg version="1.0" xmlns="http://www.w3.org/2000/svg"
 width="259.000000pt" height="194.000000pt" viewBox="0 0 259.000000 194.000000"
 preserveAspectRatio="xMidYMid meet">

<g transform="translate(0.000000,194.000000) scale(0.100000,-0.100000)"
fill="#000000" stroke="none">
<path d="M870 1895 c-94 -27 -143 -56 -167 -98 -7 -12 -12 -52 -13 -88 0 -62
-2 -69 -36 -104 l-35 -38 5 -111 c3 -61 8 -144 11 -184 5 -52 3 -77 -6 -88 -7
-8 -15 -31 -18 -51 -5 -32 -11 -38 -50 -52 -24 -9 -62 -32 -84 -52 -37 -33
-41 -40 -45 -96 l-4 -60 -49 20 c-42 18 -53 19 -89 8 -88 -26 -206 -190 -244
-337 -31 -119 -17 -245 30 -285 25 -21 167 -79 194 -79 36 0 96 37 144 91 25
28 46 55 46 60 0 5 5 9 10 9 6 0 10 -8 10 -19 0 -34 74 -88 152 -113 92 -28
263 -31 347 -5 55 17 71 15 71 -7 0 -16 57 -70 95 -89 41 -20 172 -47 233 -47
61 0 153 16 214 37 l48 17 32 -31 c63 -60 113 -78 213 -78 84 0 94 2 153 34
97 53 157 137 169 239 l6 50 71 6 c99 9 192 43 238 87 l38 36 0 118 0 118 -45
44 -45 43 32 29 c32 28 33 33 41 133 4 56 10 155 13 219 5 113 4 117 -20 146
-61 72 -245 115 -401 93 -75 -11 -99 -19 -217 -78 -5 -2 -8 26 -8 62 0 36 -5
76 -11 90 -14 31 -68 67 -134 90 -90 32 -306 32 -391 -1 -11 -4 -14 14 -14 96
0 77 -4 108 -16 127 -23 34 -87 69 -160 88 -75 19 -249 20 -314 1z m298 -10
c83 -20 110 -34 91 -47 -10 -7 -8 -8 8 -5 30 7 73 -36 66 -66 -4 -18 -3 -19 6
-7 9 12 11 11 11 -8 0 -13 -4 -20 -10 -17 -5 3 -7 0 -5 -7 3 -8 -1 -22 -9 -33
-12 -16 -15 -17 -16 -5 0 24 -79 43 -142 36 -29 -4 -74 -16 -100 -28 -38 -17
-48 -26 -48 -45 0 -13 -4 -22 -8 -19 -5 3 -22 1 -38 -4 -27 -8 -27 -8 14 -9
l42 -1 0 -85 0 -85 -52 -1 c-29 0 -47 -3 -40 -6 24 -10 11 -24 -20 -23 -63 4
-73 -3 -14 -9 l59 -6 -2 -87 c-1 -57 2 -88 8 -88 6 0 11 -4 11 -10 0 -5 -7
-10 -15 -10 -8 0 -15 5 -15 10 0 6 -5 10 -11 10 -5 0 -7 -5 -3 -11 4 -8 -3 -9
-24 -4 -18 3 -33 2 -37 -4 -4 -7 12 -11 47 -11 56 0 89 -12 69 -24 -6 -4 -11
-29 -11 -56 0 -40 4 -50 20 -55 25 -8 26 -22 3 -28 -10 -2 -6 -3 9 -1 14 2 32
-3 38 -11 7 -8 24 -15 39 -16 14 0 21 -3 15 -5 -6 -2 -9 -17 -7 -32 5 -32 -27
-86 -59 -102 l-23 -11 23 17 c32 24 28 31 -28 44 -30 7 -50 17 -50 26 0 8 -4
14 -10 14 -5 0 -7 -6 -4 -14 4 -10 -9 -15 -46 -20 -28 -4 -70 -16 -94 -28 -36
-17 -42 -24 -38 -45 2 -13 1 -23 -4 -22 -23 4 -36 -4 -16 -9 13 -4 23 -10 23
-14 -1 -5 -1 -42 -1 -83 l0 -75 -27 0 c-16 0 -37 -7 -47 -15 -11 -8 -15 -15
-10 -15 6 0 14 4 20 9 5 5 36 13 70 16 56 7 62 6 66 -13 5 -19 1 -21 -41 -25
l-46 -3 53 -2 52 -2 0 -85 c0 -84 0 -85 -25 -85 -14 0 -25 -5 -25 -11 0 -8
-14 -10 -45 -6 -24 4 -47 2 -50 -3 -3 -5 18 -10 47 -12 l53 -3 3 -83 3 -82
-43 0 c-144 2 -279 69 -294 147 l-6 34 -34 -49 c-45 -67 -112 -124 -137 -116
-13 4 -17 2 -13 -5 11 -17 -46 -14 -70 4 -12 8 -24 11 -28 8 -3 -3 -6 -1 -6 6
0 7 -4 9 -10 6 -5 -3 -10 -1 -10 4 0 6 -13 11 -29 11 -39 0 -78 34 -90 77 -6
20 -8 39 -6 42 3 2 5 -2 6 -10 0 -8 5 2 12 21 10 30 17 36 52 41 l40 6 -37 2
-37 1 16 56 c13 43 14 65 6 99 -7 30 -7 42 0 38 6 -4 8 0 5 9 -7 18 0 31 27
46 12 7 14 12 6 12 -10 0 -9 6 4 28 27 43 63 73 68 59 3 -7 6 0 6 16 1 20 10
33 34 47 51 32 73 34 127 11 27 -11 51 -21 54 -21 3 0 6 24 6 53 0 70 24 107
91 140 30 14 62 28 72 31 11 4 17 15 17 36 0 17 7 42 16 55 12 19 14 41 10
107 -21 291 -22 282 24 325 28 26 30 33 30 99 0 57 4 77 21 98 26 33 87 65
154 82 70 17 218 17 293 -1z m97 -235 c-3 -5 -12 -10 -18 -10 -7 0 -6 4 3 10
19 12 23 12 15 0z m-77 -27 c-15 -4 -18 -16 -18 -78 l0 -73 -30 -4 -31 -5 3
76 c3 75 3 76 33 82 35 8 70 9 43 2z m-100 -20 c-10 -2 -26 -2 -35 0 -10 3 -2
5 17 5 19 0 27 -2 18 -5z m672 -29 c38 -13 54 -24 52 -35 -1 -10 5 -15 19 -15
20 1 41 -23 65 -72 9 -19 -14 -59 -45 -78 l-26 -15 22 19 23 20 -59 20 c-36
12 -64 17 -72 11 -8 -5 -28 -9 -46 -9 -17 0 -53 -10 -80 -22 -40 -19 -47 -27
-45 -47 3 -20 1 -23 -20 -18 -13 4 -30 2 -38 -3 -11 -7 -3 -10 28 -10 l42 0 0
-85 c0 -69 -3 -85 -15 -85 -8 0 -15 -7 -15 -16 0 -8 -5 -12 -10 -9 -6 3 -20 3
-33 -1 -20 -7 -18 -9 13 -14 l35 -5 1 -82 c1 -45 4 -86 8 -91 11 -18 118 -27
187 -16 l36 5 2 -63 c1 -34 4 -65 7 -67 3 -4 8 112 5 132 0 4 4 7 9 7 6 0 23
9 39 21 26 19 29 30 22 72 0 5 -7 5 -13 1 -10 -6 -10 -4 -2 7 20 26 44 135 44
201 0 61 3 69 30 97 62 62 209 96 355 82 134 -13 245 -65 245 -115 0 -12 5
-27 11 -33 13 -13 1 -40 -33 -68 l-23 -20 19 23 c11 12 17 22 15 23 -2 0 -15
2 -29 4 -46 6 -82 25 -87 45 -3 11 -9 20 -15 20 -5 0 -4 -8 2 -19 15 -28 15
-28 -42 -36 -29 -4 -70 -16 -91 -26 -29 -16 -42 -17 -60 -9 -21 11 -20 10 2
-8 22 -18 25 -28 29 -124 l4 -104 -33 -2 c-37 -3 -53 -12 -21 -12 27 0 34 -25
30 -115 l-3 -70 -33 3 c-18 2 -40 -2 -48 -9 -13 -10 -17 -10 -24 2 -8 12 -12
11 -27 -3 -16 -17 -16 -18 20 -18 l37 0 0 -95 c0 -78 3 -95 15 -95 8 0 15 4
15 8 0 5 10 8 23 8 21 -1 22 3 25 82 2 54 7 84 15 87 36 11 71 15 59 7 -10 -7
-13 -29 -10 -81 3 -71 3 -71 -23 -71 -29 0 -42 -19 -28 -41 5 -8 9 -49 9 -91
0 -70 -2 -78 -19 -78 -14 0 -21 8 -24 28 -2 15 -3 -2 -1 -38 4 -83 -2 -94 -47
-82 -51 13 -136 -31 -168 -88 -13 -23 -29 -44 -36 -46 -11 -5 -11 -12 1 -41
21 -50 13 -63 -39 -63 -59 0 -108 10 -101 21 3 5 -1 6 -9 3 -8 -3 -18 0 -22 5
-3 6 -11 9 -16 6 -5 -4 -9 -1 -9 5 0 6 -4 9 -9 5 -16 -10 -127 107 -140 148
-9 27 -18 37 -34 38 -19 0 -20 1 -4 8 15 5 19 20 20 77 4 126 85 241 198 281
26 10 45 21 42 27 -4 5 -9 23 -12 40 l-7 30 -24 -25 c-14 -13 -22 -20 -17 -15
13 17 8 24 -23 31 -22 5 -30 13 -31 28 l0 22 -9 -21 c-10 -26 -30 -41 -30 -23
0 7 -2 10 -6 7 -3 -3 -25 0 -49 7 -86 26 -265 -24 -239 -67 3 -4 -5 -8 -18 -8
-13 0 -34 -4 -48 -8 -21 -6 -16 -8 25 -12 31 -3 50 -10 49 -17 -1 -7 -2 -44
-2 -83 l-2 -70 -67 -1 c-38 -1 -56 -4 -40 -6 l27 -4 0 -90 c0 -58 4 -88 10
-84 6 3 10 2 10 -4 0 -5 -8 -12 -17 -14 -10 -3 5 -5 32 -5 45 -1 47 0 25 10
-25 11 -25 12 -3 15 21 4 22 11 25 86 3 81 3 82 31 85 l27 3 0 -75 c0 -74 -1
-76 -24 -76 l-25 0 6 -110 6 -110 -46 0 c-101 0 -217 41 -267 94 -19 21 -25
40 -28 91 -2 36 -8 65 -13 65 -4 0 -28 20 -53 43 -50 49 -53 63 -34 180 10 59
16 72 50 102 32 30 38 41 38 76 0 59 31 103 93 133 29 14 69 28 89 32 55 9 62
23 55 106 -5 57 -3 77 11 100 9 15 20 28 25 28 5 0 6 7 3 16 -5 12 -1 14 17
10 l22 -6 -22 11 c-19 10 -23 20 -23 62 0 47 -1 49 -17 35 -14 -12 -23 -13
-43 -4 l-25 11 32 31 c30 30 32 30 36 10 2 -12 2 -7 0 9 -2 17 -6 59 -9 93 -6
60 -4 65 23 92 25 24 75 46 148 64 48 12 251 -2 305 -20z m-500 -87 c0 -2 -10
-12 -22 -23 l-23 -19 19 23 c18 21 26 27 26 19z m-150 -151 c0 -68 -2 -74 -22
-80 -46 -12 -48 -9 -48 64 0 69 0 70 -27 72 -19 1 -13 3 17 8 86 13 80 18 80
-64z m680 4 c-8 -5 -19 -10 -25 -10 -5 0 -3 5 5 10 8 5 20 10 25 10 6 0 3 -5
-5 -10z m-52 -17 c-15 -4 -18 -16 -18 -79 0 -57 -3 -74 -14 -74 -8 0 -22 -3
-31 -6 -14 -6 -16 3 -13 72 3 79 3 79 33 85 35 8 70 9 43 2z m-115 -20 c-7 -2
-19 -2 -25 0 -7 3 -2 5 12 5 14 0 19 -2 13 -5z m-373 -58 c-7 -8 -17 -15 -23
-15 -6 0 -2 7 9 15 25 19 30 19 14 0z m599 -62 c-13 -13 -33 -29 -44 -35 -11
-5 -6 2 10 16 17 14 26 25 21 26 -5 0 -1 9 10 21 11 12 20 16 22 9 2 -6 -6
-23 -19 -37z m-719 -57 c0 -68 -2 -74 -22 -80 -48 -12 -50 -10 -47 62 2 64 1
67 -22 72 -22 4 0 9 79 18 9 2 12 -19 12 -72z m1235 4 c-11 -5 -14 -9 -7 -9
19 -1 17 -141 -2 -141 -8 0 -21 -3 -30 -6 -14 -5 -16 5 -16 70 0 53 -4 76 -12
77 -7 1 3 5 22 9 49 10 69 10 45 0z m-652 -17 c-9 -3 -13 -29 -13 -78 0 -71 0
-73 -27 -78 -16 -3 -29 -4 -30 -4 -1 1 -3 36 -4 77 l-2 75 34 6 c43 8 57 9 42
2z m-110 -20 c-7 -2 -19 -2 -25 0 -7 3 -2 5 12 5 14 0 19 -2 13 -5z m-343 -6
c0 -2 -10 -12 -22 -23 l-23 -19 19 23 c18 21 26 27 26 19z m1250 -67 c-12 -17
-30 -35 -42 -41 -11 -6 -3 8 19 30 45 49 52 52 23 11z m-80 -60 c-8 -5 -19
-10 -25 -10 -5 0 -3 5 5 10 8 5 20 10 25 10 6 0 3 -5 -5 -10z m-80 -97 c-5
-76 -6 -78 -32 -81 l-28 -3 0 70 0 71 -32 2 c-22 1 -15 4 22 8 30 4 60 7 65 8
6 1 8 -27 5 -75z m-1383 -29 c-3 -3 -12 -4 -19 -1 -8 3 -5 6 6 6 11 1 17 -2
13 -5z m-45 -84 l-4 -80 -28 0 c-16 0 -30 -6 -33 -12 -2 -7 -3 24 -2 70 0 51
-3 83 -10 83 -5 1 8 5 30 9 22 4 42 8 45 9 3 0 4 -35 2 -79z m-105 54 c-3 -3
-12 -4 -19 -1 -8 3 -5 6 6 6 11 1 17 -2 13 -5z m1568 -24 c-3 -5 -12 -10 -18
-10 -7 0 -6 4 3 10 19 12 23 12 15 0z m91 -15 c4 -8 10 -13 14 -10 7 5 47 -34
43 -41 -2 -2 -3 -14 -3 -26 0 -19 2 -20 11 -8 8 11 9 8 4 -15 -4 -16 -14 -38
-23 -49 -17 -18 -84 -56 -99 -56 -4 1 13 12 40 26 26 13 47 29 47 34 0 5 -18
15 -40 21 -39 12 -40 13 -25 35 17 26 23 74 11 92 -4 7 -2 12 4 12 6 0 13 -7
16 -15z m-288 -42 c-10 -2 -26 -2 -35 0 -10 3 -2 5 17 5 19 0 27 -2 18 -5z
m-573 -33 c-3 -5 -12 -10 -18 -10 -7 0 -6 4 3 10 19 12 23 12 15 0z m110 -10
c-3 -5 -12 -10 -18 -10 -7 0 -6 4 3 10 19 12 23 12 15 0z m-207 -97 l-3 -76
-35 -12 -35 -12 5 78 5 79 -35 2 c-26 1 -21 3 20 8 30 4 61 7 68 8 10 2 12
-17 10 -75z m-600 0 c-10 -2 -26 -2 -35 0 -10 3 -2 5 17 5 19 0 27 -2 18 -5z
m1452 -110 c-5 -76 -6 -78 -32 -81 l-28 -3 0 70 0 70 -37 4 c-23 3 -15 4 19 3
31 0 54 2 51 7 -2 4 4 7 14 7 16 0 18 -8 13 -77z m-1043 -9 c-3 -3 -12 -4 -19
-1 -8 3 -5 6 6 6 11 1 17 -2 13 -5z m-367 -140 c0 -47 -4 -73 -10 -69 -5 3
-10 1 -10 -4 0 -6 -11 -11 -25 -11 -24 0 -25 2 -25 70 0 66 -1 70 -22 71 -13
1 -5 5 17 9 79 14 75 18 75 -66z m570 -120 c0 -44 -4 -73 -9 -69 -5 3 -12 1
-16 -5 -3 -5 -13 -10 -21 -10 -11 0 -14 16 -14 70 0 69 0 70 -27 72 -16 0 -6
4 22 8 28 4 53 8 58 8 4 1 7 -32 7 -74z"/>
<path d="M1208 1823 c6 -2 18 -2 25 0 6 3 1 5 -13 5 -14 0 -19 -2 -12 -5z"/>
<path d="M1180 1782 c0 -4 6 -16 13 -26 10 -14 14 -15 14 -4 0 7 -6 19 -14 26
-7 7 -13 9 -13 4z"/>
<path d="M808 1717 c-21 -6 -38 -14 -38 -18 0 -9 60 9 75 22 5 5 7 8 5 8 -3
-1 -22 -6 -42 -12z"/>
<path d="M878 1713 c6 -2 18 -2 25 0 6 3 1 5 -13 5 -14 0 -19 -2 -12 -5z"/>
<path d="M780 1676 c0 -2 7 -7 16 -10 8 -3 12 -2 9 4 -6 10 -25 14 -25 6z"/>
<path d="M860 1650 c-13 -8 -12 -10 3 -10 9 0 17 5 17 10 0 12 -1 12 -20 0z"/>
<path d="M898 1633 c6 -2 18 -2 25 0 6 3 1 5 -13 5 -14 0 -19 -2 -12 -5z"/>
<path d="M728 1493 c6 -2 18 -2 25 0 6 3 1 5 -13 5 -14 0 -19 -2 -12 -5z"/>
<path d="M685 1480 c4 -6 11 -8 16 -5 14 9 11 15 -7 15 -8 0 -12 -5 -9 -10z"/>
<path d="M724 1456 c11 -9 24 -16 30 -16 12 0 7 5 -24 19 -24 11 -24 11 -6 -3z"/>
<path d="M888 1453 c6 -2 18 -2 25 0 6 3 1 5 -13 5 -14 0 -19 -2 -12 -5z"/>
<path d="M780 1440 c-9 -6 -10 -10 -3 -10 6 0 15 5 18 10 8 12 4 12 -15 0z"/>
<path d="M815 1430 c-3 -5 1 -10 9 -10 9 0 16 5 16 10 0 6 -4 10 -9 10 -6 0
-13 -4 -16 -10z"/>
<path d="M705 1270 c3 -5 8 -10 11 -10 2 0 4 5 4 10 0 6 -5 10 -11 10 -5 0 -7
-4 -4 -10z"/>
<path d="M755 1251 c-6 -11 13 -26 22 -17 4 3 0 6 -8 6 -11 0 -11 2 1 10 9 6
10 10 3 10 -6 0 -14 -4 -18 -9z"/>
<path d="M799 1242 c11 -8 11 -11 0 -16 -8 -3 -5 -5 6 -3 24 3 23 21 -2 25
-14 2 -15 1 -4 -6z"/>
<path d="M840 1225 c-9 -11 -10 -15 -1 -15 7 0 19 7 27 15 13 13 13 15 1 15
-8 0 -20 -7 -27 -15z"/>
<path d="M945 1020 c-3 -6 1 -7 9 -4 18 7 21 14 7 14 -6 0 -13 -4 -16 -10z"/>
<path d="M610 920 c14 -4 36 -8 50 -8 22 0 22 1 -5 8 -16 4 -39 8 -50 8 -16 0
-15 -2 5 -8z"/>
<path d="M558 913 c7 -3 16 -2 19 1 4 3 -2 6 -13 5 -11 0 -14 -3 -6 -6z"/>
<path d="M495 900 c3 -5 12 -7 20 -3 21 7 19 13 -6 13 -11 0 -18 -4 -14 -10z"/>
<path d="M727 889 c7 -7 15 -10 18 -7 3 3 -2 9 -12 12 -14 6 -15 5 -6 -5z"/>
<path d="M575 855 c17 -8 39 -14 50 -14 11 0 0 7 -25 15 -56 17 -64 17 -25 -1z"/>
<path d="M660 840 c-12 -8 -9 -10 13 -10 16 0 26 4 22 10 -8 12 -16 12 -35 0z"/>
<path d="M187 773 c-10 -10 -8 -23 4 -23 5 0 8 4 5 9 -4 5 0 12 6 14 7 3 8 6
2 6 -6 1 -14 -2 -17 -6z"/>
<path d="M150 695 c-7 -8 -17 -12 -23 -8 -6 4 -7 1 -3 -6 6 -9 13 -8 27 5 10
9 19 19 19 21 0 7 -8 2 -20 -12z"/>
<path d="M600 665 c0 -12 37 -22 55 -14 18 9 18 9 -2 5 -13 -2 -26 0 -29 5 -5
9 -24 13 -24 4z"/>
<path d="M718 613 c6 -2 18 -2 25 0 6 3 1 5 -13 5 -14 0 -19 -2 -12 -5z"/>
<path d="M531 477 c2 -1 12 -9 22 -16 15 -12 17 -12 11 3 -3 9 -13 16 -22 16
-8 0 -13 -1 -11 -3z"/>
<path d="M159 408 c4 -28 6 -29 9 -9 2 13 0 27 -5 32 -6 6 -7 -3 -4 -23z"/>
<path d="M610 430 c8 -5 20 -10 25 -10 6 0 3 5 -5 10 -8 5 -19 10 -25 10 -5 0
-3 -5 5 -10z"/>
<path d="M718 433 c7 -3 16 -2 19 1 4 3 -2 6 -13 5 -11 0 -14 -3 -6 -6z"/>
<path d="M680 420 c-9 -6 -10 -10 -3 -10 6 0 15 5 18 10 8 12 4 12 -15 0z"/>
<path d="M768 423 c7 -3 16 -2 19 1 4 3 -2 6 -13 5 -11 0 -14 -3 -6 -6z"/>
<path d="M60 349 c0 -5 5 -7 10 -4 6 3 10 8 10 11 0 2 -4 4 -10 4 -5 0 -10 -5
-10 -11z"/>
<path d="M151 344 c0 -11 3 -14 6 -6 3 7 2 16 -1 19 -3 4 -6 -2 -5 -13z"/>
<path d="M86 325 c4 -8 11 -15 16 -15 6 0 5 6 -2 15 -7 8 -14 15 -16 15 -2 0
-1 -7 2 -15z"/>
<path d="M200 280 c8 -5 20 -10 25 -10 6 0 3 5 -5 10 -8 5 -19 10 -25 10 -5 0
-3 -5 5 -10z"/>
<path d="M1758 1523 c7 -3 16 -2 19 1 4 3 -2 6 -13 5 -11 0 -14 -3 -6 -6z"/>
<path d="M1881 1434 c0 -11 3 -14 6 -6 3 7 2 16 -1 19 -3 4 -6 -2 -5 -13z"/>
<path d="M1368 1413 c7 -3 16 -2 19 1 4 3 -2 6 -13 5 -11 0 -14 -3 -6 -6z"/>
<path d="M1418 1413 c12 -2 30 -2 40 0 9 3 -1 5 -23 4 -22 0 -30 -2 -17 -4z"/>
<path d="M1305 1401 c-3 -6 5 -15 17 -21 21 -10 22 -10 5 4 -18 14 -18 15 5
19 22 4 22 4 1 6 -12 0 -24 -3 -28 -8z"/>
<path d="M1405 1350 c-3 -5 -1 -10 4 -10 6 0 11 5 11 10 0 6 -2 10 -4 10 -3 0
-8 -4 -11 -10z"/>
<path d="M1439 1339 c-10 -6 -4 -9 19 -9 17 0 32 2 32 4 0 9 -39 13 -51 5z"/>
<path d="M2410 1340 c-11 -8 -7 -9 15 -4 37 8 45 14 19 14 -10 0 -26 -5 -34
-10z"/>
<path d="M2496 1308 c3 -5 10 -6 15 -3 13 9 11 12 -6 12 -8 0 -12 -4 -9 -9z"/>
<path d="M2022 1231 c-11 -7 -10 -9 3 -14 9 -4 13 -3 10 2 -3 5 3 12 12 14 13
3 14 5 3 6 -8 0 -21 -3 -28 -8z"/>
<path d="M2108 1223 c7 -3 16 -2 19 1 4 3 -2 6 -13 5 -11 0 -14 -3 -6 -6z"/>
<path d="M1950 1210 c0 -5 7 -7 15 -4 8 4 15 8 15 10 0 2 -7 4 -15 4 -8 0 -15
-4 -15 -10z"/>
<path d="M2075 1161 c-17 -7 -16 -9 13 -16 18 -4 36 -4 39 -1 4 3 -4 6 -16 6
-12 0 -19 4 -16 10 7 11 7 11 -20 1z"/>
<path d="M1438 1153 c7 -3 16 -2 19 1 4 3 -2 6 -13 5 -11 0 -14 -3 -6 -6z"/>
<path d="M2140 1156 c0 -2 9 -6 20 -9 11 -3 20 -1 20 4 0 5 -9 9 -20 9 -11 0
-20 -2 -20 -4z"/>
<path d="M1445 1135 l-30 -13 28 -1 c15 -1 27 3 27 8 0 5 12 12 28 14 26 4 26
4 2 5 -14 1 -38 -5 -55 -13z"/>
<path d="M1388 1133 c7 -3 16 -2 19 1 4 3 -2 6 -13 5 -11 0 -14 -3 -6 -6z"/>
<path d="M1290 1047 c0 -2 15 -16 33 -33 l32 -29 -29 33 c-28 30 -36 37 -36
29z"/>
<path d="M1940 1011 c0 -17 18 -21 24 -6 3 9 0 15 -9 15 -8 0 -15 -4 -15 -9z"/>
<path d="M2000 989 c0 -6 -7 -8 -16 -5 -9 3 -12 2 -9 -5 4 -5 15 -7 26 -4 12
4 19 2 19 -7 0 -10 3 -9 10 2 6 9 5 17 -3 22 -17 11 -27 10 -27 -3z"/>
<path d="M2050 965 c0 -8 8 -15 18 -14 10 0 12 3 4 6 -6 2 -10 9 -6 14 3 5 0
9 -5 9 -6 0 -11 -7 -11 -15z"/>
<path d="M2103 963 c9 -2 23 -2 30 0 6 3 -1 5 -18 5 -16 0 -22 -2 -12 -5z"/>
<path d="M1328 943 c6 -2 18 -2 25 0 6 3 1 5 -13 5 -14 0 -19 -2 -12 -5z"/>
<path d="M2103 943 c9 -2 25 -2 35 0 9 3 1 5 -18 5 -19 0 -27 -2 -17 -5z"/>
<path d="M1498 933 c7 -3 16 -2 19 1 4 3 -2 6 -13 5 -11 0 -14 -3 -6 -6z"/>
<path d="M1693 889 c14 -8 22 -8 30 0 8 8 3 11 -18 11 -26 -1 -28 -2 -12 -11z"/>
<path d="M1630 863 c14 -9 28 -22 32 -27 5 -8 8 -7 8 0 0 7 -11 19 -25 28 -33
21 -46 21 -15 -1z"/>
<path d="M1550 861 c0 -4 11 -6 25 -3 14 2 25 6 25 8 0 2 -11 4 -25 4 -14 0
-25 -4 -25 -9z"/>
<path d="M1693 853 c9 -2 23 -2 30 0 6 3 -1 5 -18 5 -16 0 -22 -2 -12 -5z"/>
<path d="M1870 815 c0 -8 13 -21 30 -30 34 -18 40 -18 40 -5 0 6 -3 9 -7 8
-14 -3 -53 13 -53 22 0 5 6 11 13 13 7 3 5 6 -5 6 -10 1 -18 -6 -18 -14z"/>
<path d="M1536 797 c3 -10 9 -15 12 -12 3 3 0 11 -7 18 -10 9 -11 8 -5 -6z"/>
<path d="M1970 800 c8 -5 20 -10 25 -10 6 0 3 5 -5 10 -8 5 -19 10 -25 10 -5
0 -3 -5 5 -10z"/>
<path d="M1965 770 c-13 -6 -15 -9 -5 -9 8 0 22 4 30 9 18 12 2 12 -25 0z"/>
<path d="M2020 765 c-20 -11 -21 -14 -7 -15 10 0 25 7 33 15 19 19 7 19 -26 0z"/>
<path d="M1127 746 c-21 -6 -35 -15 -31 -18 4 -4 16 -2 28 4 11 6 45 14 76 18
54 7 54 7 10 8 -25 0 -62 -5 -83 -12z"/>
<path d="M1217 678 c2 -5 13 -8 24 -8 10 0 19 3 19 8 0 4 -11 7 -24 7 -13 0
-22 -3 -19 -7z"/>
<path d="M1030 556 c0 -20 17 -29 26 -15 4 8 3 9 -4 5 -7 -4 -12 -3 -12 3 0 5
6 12 13 14 7 3 5 6 -5 6 -10 1 -18 -5 -18 -13z"/>
<path d="M1135 510 c-16 -7 -17 -9 -3 -9 9 -1 20 4 23 9 7 11 7 11 -20 0z"/>
<path d="M1165 500 c-3 -5 1 -10 9 -10 8 0 18 5 21 10 3 6 -1 10 -9 10 -8 0
-18 -4 -21 -10z"/>
<path d="M2052 480 c0 -19 2 -27 5 -17 2 9 2 25 0 35 -3 9 -5 1 -5 -18z"/>
<path d="M2167 459 c4 -13 8 -18 11 -10 2 7 -1 18 -6 23 -8 8 -9 4 -5 -13z"/>
<path d="M1215 299 c18 -5 33 -5 39 1 7 7 -4 10 -29 9 -40 -1 -40 -1 -10 -10z"/>
<path d="M1696 171 c-21 -22 -25 -31 -14 -37 7 -4 10 -3 5 1 -4 5 3 19 15 32
18 19 31 23 85 23 35 0 63 -4 63 -8 0 -5 7 -9 16 -9 14 0 14 2 -2 14 -10 7
-44 13 -79 13 -54 0 -64 -3 -89 -29z"/>
<path d="M1896 157 c3 -10 9 -15 12 -12 3 3 0 11 -7 18 -10 9 -11 8 -5 -6z"/>
<path d="M1920 70 c-13 -8 -12 -10 3 -10 9 0 17 5 17 10 0 12 -1 12 -20 0z"/>
</g>
</svg>
